<svg width="399" height="430" viewBox="0 0 399 430" fill="none" xmlns="http://www.w3.org/2000/svg">
<mask id="mask0_4471_16091" style="mask-type:alpha" maskUnits="userSpaceOnUse" x="0" y="0" width="399" height="430">
<rect width="399" height="430" rx="20" fill="#C4C4C4"/>
</mask>
<g mask="url(#mask0_4471_16091)">
<rect width="399" height="430" rx="20" fill="#FF7D54"/>
<g filter="url(#filter0_f_4471_16091)">
<ellipse cx="372.513" cy="1.16364" rx="141.453" ry="291.703" fill="#FFE9D9"/>
</g>
<g filter="url(#filter1_f_4471_16091)">
<ellipse cx="377.585" cy="369.566" rx="119.475" ry="246.378" fill="#FFAC9A"/>
</g>
<g filter="url(#filter2_f_4471_16091)">
<ellipse cx="82.8433" cy="324.246" rx="141.453" ry="291.703" fill="#FA0000"/>
</g>
<g filter="url(#filter3_f_4471_16091)">
<ellipse cx="120.038" cy="-68.5623" rx="189.919" ry="391.649" fill="#FF9E89"/>
</g>
</g>
<path d="M39.1602 123.406C38.7383 120.594 36.5586 118.871 33.6055 118.871C29.6328 118.871 27.0312 121.93 27.0312 127.273C27.0312 132.758 29.668 135.676 33.5703 135.676C36.4883 135.676 38.6328 134.059 39.1602 131.316L44.5039 131.352C43.9062 136.062 39.9688 140.352 33.5 140.352C26.6797 140.352 21.6523 135.57 21.6523 127.273C21.6523 118.977 26.7852 114.195 33.5 114.195C39.3711 114.195 43.8008 117.57 44.5039 123.406H39.1602ZM56.668 140.387C50.9023 140.387 47.3164 136.414 47.3164 130.508C47.3164 124.602 50.9023 120.664 56.668 120.664C62.4336 120.664 66.0547 124.602 66.0547 130.508C66.0547 136.414 62.4336 140.387 56.668 140.387ZM56.7031 136.344C59.375 136.344 60.7461 133.848 60.7461 130.508C60.7461 127.133 59.375 124.637 56.7031 124.637C53.9961 124.637 52.5898 127.133 52.5898 130.508C52.5898 133.848 53.9961 136.344 56.7031 136.344ZM69.3242 140V120.91H74.2812V124.25H74.4922C75.3008 122.035 77.2344 120.664 79.8008 120.664C82.4375 120.664 84.3711 122.035 85.0039 124.25H85.1797C85.9883 122.07 88.1328 120.664 90.9453 120.664C94.4961 120.664 96.957 123.02 96.957 127.168V140H91.7539V128.188C91.7539 126.008 90.4883 124.953 88.7656 124.953C86.7969 124.953 85.6719 126.324 85.6719 128.328V140H80.6094V128.047C80.6094 126.148 79.4141 124.953 77.6562 124.953C75.8984 124.953 74.5273 126.359 74.5273 128.539V140H69.3242ZM100.965 140V120.91H105.922V124.25H106.133C106.941 122.035 108.875 120.664 111.441 120.664C114.078 120.664 116.012 122.035 116.645 124.25H116.82C117.629 122.07 119.773 120.664 122.586 120.664C126.137 120.664 128.598 123.02 128.598 127.168V140H123.395V128.188C123.395 126.008 122.129 124.953 120.406 124.953C118.438 124.953 117.312 126.324 117.312 128.328V140H112.25V128.047C112.25 126.148 111.055 124.953 109.297 124.953C107.539 124.953 106.168 126.359 106.168 128.539V140H100.965ZM144.84 131.879V120.91H150.043V140H145.051V136.555H144.84C143.961 138.77 141.922 140.246 139.039 140.246C135.207 140.246 132.605 137.539 132.605 133.074V120.91H137.809V132.16C137.809 134.41 139.109 135.852 141.148 135.852C143.047 135.852 144.84 134.48 144.84 131.879ZM159.289 128.961V140H154.086V120.91H159.043V124.25H159.254C160.133 122.035 162.172 120.664 164.984 120.664C168.957 120.664 171.594 123.371 171.559 127.836V140H166.391V128.75C166.391 126.395 165.09 124.988 162.945 124.988C160.766 124.988 159.289 126.43 159.289 128.961ZM175.602 140V120.91H180.805V140H175.602ZM178.203 118.414C176.621 118.414 175.355 117.219 175.355 115.777C175.355 114.301 176.621 113.105 178.203 113.105C179.75 113.105 181.016 114.301 181.016 115.777C181.016 117.219 179.75 118.414 178.203 118.414ZM194.902 120.91V124.812H191.316V134.129C191.316 135.641 192.055 136.027 193.109 136.062C193.637 136.062 194.551 136.027 195.184 135.957V140.07C194.621 140.176 193.707 140.246 192.406 140.246C188.645 140.246 186.078 138.559 186.113 134.867V124.812H183.477V120.91H186.113V116.34H191.316V120.91H194.902ZM201.23 147.172C200.211 147.172 199.262 147.137 198.594 147.066V143.023C199.262 143.059 200.035 143.094 200.703 143.094C201.723 143.094 202.566 142.988 203.199 141.336L203.516 140.527L196.66 120.91H202.109L206.117 134.973H206.328L210.371 120.91H215.891L208.438 142.109C207.348 145.168 205.273 147.172 201.23 147.172ZM226.824 140V114.547H236.949C242.574 114.547 245.387 117.254 245.387 121.086C245.387 124.074 243.453 125.938 240.816 126.535V126.781C243.699 126.922 246.406 129.207 246.406 132.969C246.406 137.012 243.383 140 237.617 140H226.824ZM236.562 135.641C239.621 135.641 240.922 134.375 240.922 132.477C240.922 130.332 239.305 128.82 236.703 128.82H232.098V135.641H236.562ZM236.176 125.199C238.391 125.199 240.043 123.969 240.043 121.93C240.043 120.102 238.707 118.836 236.281 118.836H232.098V125.199H236.176ZM258.219 140.387C252.453 140.387 248.867 136.414 248.867 130.508C248.867 124.602 252.453 120.664 258.219 120.664C263.984 120.664 267.605 124.602 267.605 130.508C267.605 136.414 263.984 140.387 258.219 140.387ZM258.254 136.344C260.926 136.344 262.297 133.848 262.297 130.508C262.297 127.133 260.926 124.637 258.254 124.637C255.547 124.637 254.141 127.133 254.141 130.508C254.141 133.848 255.547 136.344 258.254 136.344ZM269.961 134.656C269.961 130.402 273.406 128.996 277.062 128.785C278.434 128.697 281 128.574 281.809 128.539V126.992C281.773 125.41 280.684 124.461 278.75 124.461C276.992 124.461 275.867 125.27 275.586 126.57H270.629C270.945 123.266 273.828 120.664 278.891 120.664C283.039 120.664 286.977 122.527 286.977 127.133V140H282.055V137.363H281.914C280.965 139.121 279.172 140.352 276.324 140.352C272.668 140.352 269.961 138.453 269.961 134.656ZM274.953 134.516C274.953 135.992 276.148 136.766 277.801 136.766C280.156 136.766 281.844 135.184 281.809 133.18V131.773C281.018 131.809 278.803 131.932 277.906 132.02C276.113 132.195 274.953 133.039 274.953 134.516ZM290.949 140V120.91H295.977V124.215H296.188C296.891 121.859 298.648 120.629 300.793 120.629C301.32 120.629 301.988 120.699 302.445 120.805V125.445C301.953 125.305 300.969 125.164 300.23 125.164C297.875 125.164 296.152 126.816 296.152 129.137V140H290.949ZM311.41 140.316C307.051 140.316 303.641 136.836 303.641 130.473C303.641 123.934 307.191 120.664 311.41 120.664C314.609 120.664 316.121 122.562 316.824 124.109H317V114.547H322.203V140H317.07V136.941H316.824C316.086 138.523 314.504 140.316 311.41 140.316ZM313.027 136.168C315.629 136.168 317.105 133.883 317.105 130.438C317.105 126.992 315.629 124.812 313.027 124.812C310.391 124.812 308.984 127.098 308.984 130.438C308.984 133.812 310.391 136.168 313.027 136.168Z" fill="white"/>
<path d="M0 350H399V410C399 421.046 390.046 430 379 430H20C8.9543 430 0 421.046 0 410V350Z" fill="white" fill-opacity="0.2"/>
<g filter="url(#filter4_i_4471_16091)">
<path fill-rule="evenodd" clip-rule="evenodd" d="M86.4167 162.493C73.4073 162.493 62.8611 172.161 62.8611 184.088C62.8611 196.015 73.4073 205.683 86.4167 205.683C99.426 205.683 109.972 196.015 109.972 184.088C109.972 172.161 99.426 162.493 86.4167 162.493ZM51.0833 184.088C51.0833 166.198 66.9026 151.695 86.4167 151.695C105.931 151.695 121.75 166.198 121.75 184.088C121.75 201.978 105.931 216.48 86.4167 216.48C66.9026 216.48 51.0833 201.978 51.0833 184.088ZM132.24 156.632C133.046 153.744 136.254 152.002 139.405 152.741C147.005 154.525 153.742 158.578 158.553 164.259C163.363 169.941 165.974 176.929 165.974 184.122C165.974 191.314 163.363 198.302 158.553 203.984C153.742 209.666 147.005 213.718 139.405 215.502C136.254 216.242 133.046 214.499 132.24 211.611C131.433 208.723 133.333 205.781 136.484 205.042C141.551 203.852 146.042 201.151 149.249 197.363C152.456 193.575 154.197 188.917 154.197 184.122C154.197 179.327 152.456 174.668 149.249 170.88C146.042 167.092 141.551 164.391 136.484 163.201C133.333 162.462 131.433 159.521 132.24 156.632ZM39.3489 242.164C45.9752 236.09 54.9623 232.677 64.3333 232.677H108.5C117.871 232.677 126.858 236.09 133.484 242.164C140.111 248.239 143.833 256.478 143.833 265.069V278.566C143.833 281.548 141.197 283.965 137.944 283.965C134.692 283.965 132.056 281.548 132.056 278.566V265.069C132.056 259.342 129.574 253.849 125.156 249.799C120.739 245.749 114.747 243.474 108.5 243.474H64.3333C58.086 243.474 52.0946 245.749 47.677 249.799C43.2595 253.849 40.7778 259.342 40.7778 265.069V278.566C40.7778 281.548 38.1412 283.965 34.8889 283.965C31.6365 283.965 29 281.548 29 278.566V265.069C29 256.478 32.7226 248.239 39.3489 242.164ZM154.326 237.603C155.139 234.716 158.351 232.98 161.5 233.725C169.08 235.52 175.796 239.571 180.592 245.244C185.388 250.916 187.994 257.888 188 265.065V278.566C188 281.548 185.363 283.965 182.111 283.965C178.859 283.965 176.222 281.548 176.222 278.566V265.073C176.218 260.289 174.481 255.64 171.284 251.859C168.086 248.077 163.609 245.376 158.556 244.18C155.406 243.435 153.513 240.49 154.326 237.603Z" fill="url(#paint0_linear_4471_16091)"/>
</g>
<defs>
<filter id="filter0_f_4471_16091" x="30.078" y="-491.52" width="684.869" height="985.369" filterUnits="userSpaceOnUse" color-interpolation-filters="sRGB">
<feFlood flood-opacity="0" result="BackgroundImageFix"/>
<feBlend mode="normal" in="SourceGraphic" in2="BackgroundImageFix" result="shape"/>
<feGaussianBlur stdDeviation="100.491" result="effect1_foregroundBlur_4471_16091"/>
</filter>
<filter id="filter1_f_4471_16091" x="57.1289" y="-77.7939" width="640.912" height="894.721" filterUnits="userSpaceOnUse" color-interpolation-filters="sRGB">
<feFlood flood-opacity="0" result="BackgroundImageFix"/>
<feBlend mode="normal" in="SourceGraphic" in2="BackgroundImageFix" result="shape"/>
<feGaussianBlur stdDeviation="100.491" result="effect1_foregroundBlur_4471_16091"/>
</filter>
<filter id="filter2_f_4471_16091" x="-259.591" y="-168.438" width="684.869" height="985.369" filterUnits="userSpaceOnUse" color-interpolation-filters="sRGB">
<feFlood flood-opacity="0" result="BackgroundImageFix"/>
<feBlend mode="normal" in="SourceGraphic" in2="BackgroundImageFix" result="shape"/>
<feGaussianBlur stdDeviation="100.491" result="effect1_foregroundBlur_4471_16091"/>
</filter>
<filter id="filter3_f_4471_16091" x="-270.863" y="-661.192" width="781.802" height="1185.26" filterUnits="userSpaceOnUse" color-interpolation-filters="sRGB">
<feFlood flood-opacity="0" result="BackgroundImageFix"/>
<feBlend mode="normal" in="SourceGraphic" in2="BackgroundImageFix" result="shape"/>
<feGaussianBlur stdDeviation="100.491" result="effect1_foregroundBlur_4471_16091"/>
</filter>
<filter id="filter4_i_4471_16091" x="29" y="151.695" width="159" height="136.27" filterUnits="userSpaceOnUse" color-interpolation-filters="sRGB">
<feFlood flood-opacity="0" result="BackgroundImageFix"/>
<feBlend mode="normal" in="SourceGraphic" in2="BackgroundImageFix" result="shape"/>
<feColorMatrix in="SourceAlpha" type="matrix" values="0 0 0 0 0 0 0 0 0 0 0 0 0 0 0 0 0 0 127 0" result="hardAlpha"/>
<feOffset dy="4"/>
<feGaussianBlur stdDeviation="2"/>
<feComposite in2="hardAlpha" operator="arithmetic" k2="-1" k3="1"/>
<feColorMatrix type="matrix" values="0 0 0 0 0 0 0 0 0 0 0 0 0 0 0 0 0 0 0.05 0"/>
<feBlend mode="normal" in2="shape" result="effect1_innerShadow_4471_16091"/>
</filter>
<linearGradient id="paint0_linear_4471_16091" x1="28.7109" y1="180.795" x2="169.642" y2="281.445" gradientUnits="userSpaceOnUse">
<stop stop-color="white" stop-opacity="0.6"/>
<stop offset="1" stop-color="white" stop-opacity="0.2"/>
</linearGradient>
</defs>
</svg>
