<svg width="38" height="38" viewBox="0 0 38 38" fill="none" xmlns="http://www.w3.org/2000/svg">
<path d="M18.7465 0C20.0848 0 21.4061 0.140486 22.6943 0.416697C23.7828 0.65011 24.1811 1.99596 23.3951 2.78425C22.5236 3.65814 22.0271 4.83412 22.0271 6.09261C22.0271 8.28676 23.5479 10.1741 25.6561 10.6597C26.3499 10.8195 26.8148 11.4727 26.7385 12.1805C26.722 12.3328 26.7138 12.4909 26.7138 12.6539C26.7138 15.2422 28.8121 17.3405 31.4004 17.3405C32.7625 17.3405 34.0273 16.7581 34.9126 15.757C35.717 14.8474 37.2186 15.3166 37.362 16.5226C37.4491 17.2558 37.493 17.9983 37.493 18.7465C37.493 29.0998 29.0998 37.493 18.7465 37.493C8.39309 37.493 0 29.0998 0 18.7465C0 8.39309 8.39309 0 18.7465 0ZM24.3705 26.2451C23.3351 26.2451 22.4958 27.0844 22.4958 28.1198C22.4958 29.1551 23.3351 29.9944 24.3705 29.9944C25.4058 29.9944 26.2451 29.1551 26.2451 28.1198C26.2451 27.0844 25.4058 26.2451 24.3705 26.2451ZM11.2479 24.3705C10.2126 24.3705 9.37325 25.2097 9.37325 26.2451C9.37325 27.2805 10.2126 28.1198 11.2479 28.1198C12.2832 28.1198 13.1226 27.2805 13.1226 26.2451C13.1226 25.2097 12.2832 24.3705 11.2479 24.3705ZM18.7465 16.8719C17.7111 16.8719 16.8719 17.7111 16.8719 18.7465C16.8719 19.7819 17.7111 20.6212 18.7465 20.6212C19.7819 20.6212 20.6212 19.7819 20.6212 18.7465C20.6212 17.7111 19.7819 16.8719 18.7465 16.8719ZM9.37325 11.2479C8.33792 11.2479 7.4986 12.0872 7.4986 13.1226C7.4986 14.1579 8.33792 14.9972 9.37325 14.9972C10.4086 14.9972 11.2479 14.1579 11.2479 13.1226C11.2479 12.0872 10.4086 11.2479 9.37325 11.2479Z" fill="white"/>
</svg>
