<svg width="92" height="92" viewBox="0 0 92 92" fill="none" xmlns="http://www.w3.org/2000/svg">
<g filter="url(#filter0_d_6105_8325)">
<circle cx="46" cy="46" r="36" fill="white"/>
<mask id="mask0_6105_8325" style="mask-type:alpha" maskUnits="userSpaceOnUse" x="23" y="29" width="46" height="34">
<path d="M65.1056 32.2521C60.802 27.916 53.8262 27.916 49.5254 32.2521L45.6667 36.14L41.808 32.2521C37.5044 27.916 30.5285 27.916 26.2277 32.2521C21.9241 36.5882 21.9241 43.6169 26.2277 47.9502L36.8944 58.6975C37.1742 59.0612 37.4792 59.4164 37.8122 59.7491C39.9808 61.9341 42.8265 63.0139 45.6667 62.9998C48.5068 63.0167 51.3526 61.9341 53.5212 59.7491C53.8541 59.4136 54.1564 59.0612 54.439 58.6975L65.1056 47.9502C69.4092 43.614 69.4092 36.5854 65.1056 32.2521Z" fill="#E9E9E9"/>
</mask>
<g mask="url(#mask0_6105_8325)">
<mask id="mask1_6105_8325" style="mask-type:alpha" maskUnits="userSpaceOnUse" x="22" y="22" width="48" height="48">
<rect x="22.0547" y="22.3887" width="47.2222" height="47.1342" rx="2.50627" fill="#C4C4C4"/>
</mask>
<g mask="url(#mask1_6105_8325)">
<rect x="22.0547" y="22.3887" width="47.2222" height="47.1342" rx="2.50627" fill="#FF7D54"/>
<g filter="url(#filter1_f_6105_8325)">
<ellipse cx="66.1416" cy="22.5158" rx="16.7412" ry="31.9748" fill="#FFE9D9"/>
</g>
<g filter="url(#filter2_f_6105_8325)">
<ellipse cx="66.7435" cy="62.8972" rx="14.14" ry="27.0066" fill="#FFAC9A"/>
</g>
<g filter="url(#filter3_f_6105_8325)">
<ellipse cx="31.8584" cy="57.9319" rx="16.7412" ry="31.9748" fill="#E24343"/>
</g>
<g filter="url(#filter4_f_6105_8325)">
<ellipse cx="36.2663" cy="14.8727" rx="22.4772" ry="42.9303" fill="#FF9E89"/>
</g>
</g>
</g>
</g>
<defs>
<filter id="filter0_d_6105_8325" x="-4" y="-4" width="100" height="100" filterUnits="userSpaceOnUse" colorInterpolationFilters="sRGB">
<feFlood floodOpacity="0" result="BackgroundImageFix"/>
<feColorMatrix in="SourceAlpha" type="matrix" values="0 0 0 0 0 0 0 0 0 0 0 0 0 0 0 0 0 0 127 0" result="hardAlpha"/>
<feOffset/>
<feGaussianBlur stdDeviation="2"/>
<feComposite in2="hardAlpha" operator="out"/>
<feColorMatrix type="matrix" values="0 0 0 0 0 0 0 0 0 0 0 0 0 0 0 0 0 0 0.25 0"/>
<feBlend mode="normal" in2="BackgroundImageFix" result="effect1_dropShadow_6105_8325"/>
<feBlend mode="normal" in="SourceGraphic" in2="effect1_dropShadow_6105_8325" result="shape"/>
</filter>
<filter id="filter1_f_6105_8325" x="24.2148" y="-34.6446" width="83.8537" height="114.32" filterUnits="userSpaceOnUse" colorInterpolationFilters="sRGB">
<feFlood floodOpacity="0" result="BackgroundImageFix"/>
<feBlend mode="normal" in="SourceGraphic" in2="BackgroundImageFix" result="shape"/>
<feGaussianBlur stdDeviation="12.5928" result="effect1_foregroundBlur_6105_8325"/>
</filter>
<filter id="filter2_f_6105_8325" x="27.4179" y="10.705" width="78.6506" height="104.385" filterUnits="userSpaceOnUse" colorInterpolationFilters="sRGB">
<feFlood floodOpacity="0" result="BackgroundImageFix"/>
<feBlend mode="normal" in="SourceGraphic" in2="BackgroundImageFix" result="shape"/>
<feGaussianBlur stdDeviation="12.5928" result="effect1_foregroundBlur_6105_8325"/>
</filter>
<filter id="filter3_f_6105_8325" x="-10.0684" y="0.771395" width="83.8537" height="114.32" filterUnits="userSpaceOnUse" colorInterpolationFilters="sRGB">
<feFlood floodOpacity="0" result="BackgroundImageFix"/>
<feBlend mode="normal" in="SourceGraphic" in2="BackgroundImageFix" result="shape"/>
<feGaussianBlur stdDeviation="12.5928" result="effect1_foregroundBlur_6105_8325"/>
</filter>
<filter id="filter4_f_6105_8325" x="-11.3966" y="-53.2433" width="95.3264" height="136.232" filterUnits="userSpaceOnUse" colorInterpolationFilters="sRGB">
<feFlood floodOpacity="0" result="BackgroundImageFix"/>
<feBlend mode="normal" in="SourceGraphic" in2="BackgroundImageFix" result="shape"/>
<feGaussianBlur stdDeviation="12.5928" result="effect1_foregroundBlur_6105_8325"/>
</filter>
</defs>
</svg>
