<svg width="399" height="430" viewBox="0 0 399 430" fill="none" xmlns="http://www.w3.org/2000/svg">
<mask id="mask0_4471_16135" style="mask-type:alpha" maskUnits="userSpaceOnUse" x="0" y="0" width="399" height="430">
<rect width="399" height="430" rx="20" fill="#C4C4C4"/>
</mask>
<g mask="url(#mask0_4471_16135)">
<rect width="399" height="430" rx="20" fill="#FF7D54"/>
<g filter="url(#filter0_f_4471_16135)">
<ellipse cx="372.513" cy="1.16364" rx="141.453" ry="291.703" fill="#FFE9D9"/>
</g>
<g filter="url(#filter1_f_4471_16135)">
<ellipse cx="377.585" cy="369.566" rx="119.475" ry="246.378" fill="#FFAC9A"/>
</g>
<g filter="url(#filter2_f_4471_16135)">
<ellipse cx="82.8432" cy="324.246" rx="141.453" ry="291.703" fill="#E24343"/>
</g>
<g filter="url(#filter3_f_4471_16135)">
<ellipse cx="120.038" cy="-68.5623" rx="189.919" ry="391.649" fill="#FF9E89"/>
</g>
</g>
<path d="M27.418 114.547V140H22.1445V114.547H27.418ZM36.8047 128.961V140H31.6016V120.91H36.5586V124.25H36.7695C37.6484 122.035 39.6875 120.664 42.5 120.664C46.4727 120.664 49.1094 123.371 49.0742 127.836V140H43.9062V128.75C43.9062 126.395 42.6055 124.988 40.4609 124.988C38.2812 124.988 36.8047 126.43 36.8047 128.961ZM63.2773 120.91V124.812H59.4805V140H54.2773V124.812H51.5703V120.91H54.2773V119.469C54.2773 115.461 56.7031 113.352 60.5352 113.352C61.7305 113.352 62.7148 113.457 63.6289 113.668V117.605C62.8906 117.535 62.3281 117.5 62.0469 117.5C60.3594 117.5 59.4805 118.168 59.4805 119.75V120.91H63.2773ZM74.2109 140.387C68.4453 140.387 64.8594 136.414 64.8594 130.508C64.8594 124.602 68.4453 120.664 74.2109 120.664C79.9766 120.664 83.5977 124.602 83.5977 130.508C83.5977 136.414 79.9766 140.387 74.2109 140.387ZM74.2461 136.344C76.918 136.344 78.2891 133.848 78.2891 130.508C78.2891 127.133 76.918 124.637 74.2461 124.637C71.5391 124.637 70.1328 127.133 70.1328 130.508C70.1328 133.848 71.5391 136.344 74.2461 136.344ZM86.8672 140V120.91H91.8945V124.215H92.1055C92.8086 121.859 94.5664 120.629 96.7109 120.629C97.2383 120.629 97.9062 120.699 98.3633 120.805V125.445C97.8711 125.305 96.8867 125.164 96.1484 125.164C93.793 125.164 92.0703 126.816 92.0703 129.137V140H86.8672ZM100.895 140V120.91H105.852V124.25H106.062C106.871 122.035 108.805 120.664 111.371 120.664C114.008 120.664 115.941 122.035 116.574 124.25H116.75C117.559 122.07 119.703 120.664 122.516 120.664C126.066 120.664 128.527 123.02 128.527 127.168V140H123.324V128.188C123.324 126.008 122.059 124.953 120.336 124.953C118.367 124.953 117.242 126.324 117.242 128.328V140H112.18V128.047C112.18 126.148 110.984 124.953 109.227 124.953C107.469 124.953 106.098 126.359 106.098 128.539V140H100.895ZM131.621 134.656C131.621 130.402 135.066 128.996 138.723 128.785C140.094 128.697 142.66 128.574 143.469 128.539V126.992C143.434 125.41 142.344 124.461 140.41 124.461C138.652 124.461 137.527 125.27 137.246 126.57H132.289C132.605 123.266 135.488 120.664 140.551 120.664C144.699 120.664 148.637 122.527 148.637 127.133V140H143.715V137.363H143.574C142.625 139.121 140.832 140.352 137.984 140.352C134.328 140.352 131.621 138.453 131.621 134.656ZM136.613 134.516C136.613 135.992 137.809 136.766 139.461 136.766C141.816 136.766 143.504 135.184 143.469 133.18V131.773C142.678 131.809 140.463 131.932 139.566 132.02C137.773 132.195 136.613 133.039 136.613 134.516ZM162.664 120.91V124.812H159.078V134.129C159.078 135.641 159.816 136.027 160.871 136.062C161.398 136.062 162.312 136.027 162.945 135.957V140.07C162.383 140.176 161.469 140.246 160.168 140.246C156.406 140.246 153.84 138.559 153.875 134.867V124.812H151.238V120.91H153.875V116.34H159.078V120.91H162.664ZM165.934 140V120.91H171.137V140H165.934ZM168.535 118.414C166.953 118.414 165.688 117.219 165.688 115.777C165.688 114.301 166.953 113.105 168.535 113.105C170.082 113.105 171.348 114.301 171.348 115.777C171.348 117.219 170.082 118.414 168.535 118.414ZM183.758 140.387C177.992 140.387 174.406 136.414 174.406 130.508C174.406 124.602 177.992 120.664 183.758 120.664C189.523 120.664 193.145 124.602 193.145 130.508C193.145 136.414 189.523 140.387 183.758 140.387ZM183.793 136.344C186.465 136.344 187.836 133.848 187.836 130.508C187.836 127.133 186.465 124.637 183.793 124.637C181.086 124.637 179.68 127.133 179.68 130.508C179.68 133.848 181.086 136.344 183.793 136.344ZM201.617 128.961V140H196.414V120.91H201.371V124.25H201.582C202.461 122.035 204.5 120.664 207.312 120.664C211.285 120.664 213.922 123.371 213.887 127.836V140H208.719V128.75C208.719 126.395 207.418 124.988 205.273 124.988C203.094 124.988 201.617 126.43 201.617 128.961ZM226.332 140V114.547H236.457C242.082 114.547 244.895 117.254 244.895 121.086C244.895 124.074 242.961 125.938 240.324 126.535V126.781C243.207 126.922 245.914 129.207 245.914 132.969C245.914 137.012 242.891 140 237.125 140H226.332ZM236.07 135.641C239.129 135.641 240.43 134.375 240.43 132.477C240.43 130.332 238.812 128.82 236.211 128.82H231.605V135.641H236.07ZM235.684 125.199C237.898 125.199 239.551 123.969 239.551 121.93C239.551 120.102 238.215 118.836 235.789 118.836H231.605V125.199H235.684ZM257.727 140.387C251.961 140.387 248.375 136.414 248.375 130.508C248.375 124.602 251.961 120.664 257.727 120.664C263.492 120.664 267.113 124.602 267.113 130.508C267.113 136.414 263.492 140.387 257.727 140.387ZM257.762 136.344C260.434 136.344 261.805 133.848 261.805 130.508C261.805 127.133 260.434 124.637 257.762 124.637C255.055 124.637 253.648 127.133 253.648 130.508C253.648 133.848 255.055 136.344 257.762 136.344ZM269.469 134.656C269.469 130.402 272.914 128.996 276.57 128.785C277.941 128.697 280.508 128.574 281.316 128.539V126.992C281.281 125.41 280.191 124.461 278.258 124.461C276.5 124.461 275.375 125.27 275.094 126.57H270.137C270.453 123.266 273.336 120.664 278.398 120.664C282.547 120.664 286.484 122.527 286.484 127.133V140H281.562V137.363H281.422C280.473 139.121 278.68 140.352 275.832 140.352C272.176 140.352 269.469 138.453 269.469 134.656ZM274.461 134.516C274.461 135.992 275.656 136.766 277.309 136.766C279.664 136.766 281.352 135.184 281.316 133.18V131.773C280.525 131.809 278.311 131.932 277.414 132.02C275.621 132.195 274.461 133.039 274.461 134.516ZM290.457 140V120.91H295.484V124.215H295.695C296.398 121.859 298.156 120.629 300.301 120.629C300.828 120.629 301.496 120.699 301.953 120.805V125.445C301.461 125.305 300.477 125.164 299.738 125.164C297.383 125.164 295.66 126.816 295.66 129.137V140H290.457ZM310.918 140.316C306.559 140.316 303.148 136.836 303.148 130.473C303.148 123.934 306.699 120.664 310.918 120.664C314.117 120.664 315.629 122.562 316.332 124.109H316.508V114.547H321.711V140H316.578V136.941H316.332C315.594 138.523 314.012 140.316 310.918 140.316ZM312.535 136.168C315.137 136.168 316.613 133.883 316.613 130.438C316.613 126.992 315.137 124.812 312.535 124.812C309.898 124.812 308.492 127.098 308.492 130.438C308.492 133.812 309.898 136.168 312.535 136.168Z" fill="white"/>
<path d="M0 350H399V410C399 421.046 390.046 430 379 430H20C8.9543 430 0 421.046 0 410V350Z" fill="white" fill-opacity="0.2"/>
<g filter="url(#filter4_i_4471_16135)">
<path fill-rule="evenodd" clip-rule="evenodd" d="M42.125 161.493C39.1021 161.493 36.2031 162.59 34.0656 164.542C31.9281 166.494 30.7273 169.142 30.7273 171.903V246.437C34.1408 244.563 38.0757 243.549 42.125 243.549H127.273V162.718C127.273 162.393 127.131 162.081 126.88 161.852C126.629 161.622 126.287 161.493 125.932 161.493H42.125ZM138 162.718C138 159.794 136.729 156.991 134.465 154.924C132.202 152.857 129.132 151.695 125.932 151.695H42.125C36.2571 151.695 30.6295 153.824 26.4803 157.614C22.331 161.404 20 166.544 20 171.903V263.757C20 269.117 22.331 274.257 26.4803 278.046C30.6295 281.836 36.2571 283.965 42.125 283.965H125.932C129.132 283.965 132.202 282.804 134.465 280.737C136.729 278.669 138 275.866 138 272.943V162.718ZM127.273 253.347H42.125C39.1021 253.347 36.2031 254.444 34.0656 256.396C31.9281 258.348 30.7273 260.996 30.7273 263.757C30.7273 266.518 31.9281 269.166 34.0656 271.118C36.2031 273.07 39.1021 274.167 42.125 274.167H125.932C126.287 274.167 126.629 274.038 126.88 273.809C127.131 273.579 127.273 273.267 127.273 272.943V253.347ZM46.8182 187.212C46.8182 184.507 49.2196 182.313 52.1818 182.313H92.4091C95.3713 182.313 97.7727 184.507 97.7727 187.212C97.7727 189.918 95.3713 192.111 92.4091 192.111H52.1818C49.2196 192.111 46.8182 189.918 46.8182 187.212ZM46.8182 211.707C46.8182 209.001 49.2196 206.808 52.1818 206.808H105.818C108.78 206.808 111.182 209.001 111.182 211.707C111.182 214.412 108.78 216.605 105.818 216.605H52.1818C49.2196 216.605 46.8182 214.412 46.8182 211.707Z" fill="url(#paint0_linear_4471_16135)"/>
</g>
<defs>
<filter id="filter0_f_4471_16135" x="30.078" y="-491.52" width="684.869" height="985.369" filterUnits="userSpaceOnUse" colorInterpolationFilters="sRGB">
<feFlood floodOpacity="0" result="BackgroundImageFix"/>
<feBlend mode="normal" in="SourceGraphic" in2="BackgroundImageFix" result="shape"/>
<feGaussianBlur stdDeviation="100.491" result="effect1_foregroundBlur_4471_16135"/>
</filter>
<filter id="filter1_f_4471_16135" x="57.1289" y="-77.7939" width="640.912" height="894.721" filterUnits="userSpaceOnUse" colorInterpolationFilters="sRGB">
<feFlood floodOpacity="0" result="BackgroundImageFix"/>
<feBlend mode="normal" in="SourceGraphic" in2="BackgroundImageFix" result="shape"/>
<feGaussianBlur stdDeviation="100.491" result="effect1_foregroundBlur_4471_16135"/>
</filter>
<filter id="filter2_f_4471_16135" x="-259.592" y="-168.438" width="684.869" height="985.369" filterUnits="userSpaceOnUse" colorInterpolationFilters="sRGB">
<feFlood floodOpacity="0" result="BackgroundImageFix"/>
<feBlend mode="normal" in="SourceGraphic" in2="BackgroundImageFix" result="shape"/>
<feGaussianBlur stdDeviation="100.491" result="effect1_foregroundBlur_4471_16135"/>
</filter>
<filter id="filter3_f_4471_16135" x="-270.863" y="-661.192" width="781.802" height="1185.26" filterUnits="userSpaceOnUse" colorInterpolationFilters="sRGB">
<feFlood floodOpacity="0" result="BackgroundImageFix"/>
<feBlend mode="normal" in="SourceGraphic" in2="BackgroundImageFix" result="shape"/>
<feGaussianBlur stdDeviation="100.491" result="effect1_foregroundBlur_4471_16135"/>
</filter>
<filter id="filter4_i_4471_16135" x="20" y="151.695" width="118" height="136.27" filterUnits="userSpaceOnUse" colorInterpolationFilters="sRGB">
<feFlood floodOpacity="0" result="BackgroundImageFix"/>
<feBlend mode="normal" in="SourceGraphic" in2="BackgroundImageFix" result="shape"/>
<feColorMatrix in="SourceAlpha" type="matrix" values="0 0 0 0 0 0 0 0 0 0 0 0 0 0 0 0 0 0 127 0" result="hardAlpha"/>
<feOffset dy="4"/>
<feGaussianBlur stdDeviation="2"/>
<feComposite in2="hardAlpha" operator="arithmetic" k2="-1" k3="1"/>
<feColorMatrix type="matrix" values="0 0 0 0 0 0 0 0 0 0 0 0 0 0 0 0 0 0 0.05 0"/>
<feBlend mode="normal" in2="shape" result="effect1_innerShadow_4471_16135"/>
</filter>
<linearGradient id="paint0_linear_4471_16135" x1="19.7855" y1="180.795" x2="143.085" y2="246.146" gradientUnits="userSpaceOnUse">
<stop stop-color="white" stop-opacity="0.6"/>
<stop offset="1" stop-color="white" stop-opacity="0.2"/>
</linearGradient>
</defs>
</svg>
