<svg width="25" height="25" viewBox="0 0 25 25" fill="none" xmlns="http://www.w3.org/2000/svg">
<g id="instagram">
<path id="Vector" d="M17.1923 2.25537H7.11226C4.32875 2.25537 2.07227 4.51185 2.07227 7.29537V17.3754C2.07227 20.1589 4.32875 22.4154 7.11226 22.4154H17.1923C19.9758 22.4154 22.2323 20.1589 22.2323 17.3754V7.29537C22.2323 4.51185 19.9758 2.25537 17.1923 2.25537Z" stroke="black" stroke-width="2.016" stroke-linecap="round" stroke-linejoin="round"/>
<path id="Vector_2" d="M16.1845 11.7003C16.3089 12.5392 16.1656 13.396 15.775 14.1488C15.3844 14.9016 14.7663 15.512 14.0088 15.8933C13.2513 16.2746 12.3928 16.4073 11.5555 16.2726C10.7182 16.1378 9.94469 15.7425 9.34501 15.1428C8.74533 14.5431 8.35001 13.7696 8.21527 12.9323C8.08054 12.095 8.21326 11.2366 8.59454 10.479C8.97583 9.72149 9.58627 9.10347 10.339 8.71287C11.0918 8.32227 11.9486 8.17898 12.7875 8.30338C13.6432 8.43027 14.4354 8.82902 15.0471 9.44071C15.6588 10.0524 16.0576 10.8446 16.1845 11.7003Z" stroke="black" stroke-width="2.016" stroke-linecap="round" stroke-linejoin="round"/>
<path id="Vector_3" d="M17.6963 6.79126H17.7064" stroke="black" stroke-width="2.016" stroke-linecap="round" stroke-linejoin="round"/>
</g>
</svg>
