<svg width="29" height="29" viewBox="0 0 29 29" fill="none" xmlns="http://www.w3.org/2000/svg">
<g id="kakaocorp.com svg" clip-path="url(#clip0_853_2056)">
<path id="Vector" d="M14.1125 4.19214C7.77994 4.19214 2.64648 8.23975 2.64648 13.2326C2.64648 16.4606 4.79261 19.2931 8.02095 20.8925C7.84532 21.4982 6.89232 24.7891 6.85439 25.0477C6.85439 25.0477 6.83157 25.2419 6.95737 25.316C7.08316 25.3901 7.23112 25.3326 7.23112 25.3326C7.59186 25.2822 11.4143 22.5972 12.0759 22.1309C12.7369 22.2245 13.4175 22.2731 14.1125 22.2731C20.445 22.2731 25.5785 18.2256 25.5785 13.2326C25.5785 8.23975 20.445 4.19214 14.1125 4.19214Z" fill="black"/>
<g id="Vector_2">
<mask id="path-2-inside-1_853_2056" fill="white">
<path d="M7.7725 16.3888C7.40768 16.3888 7.111 16.1054 7.111 15.757V11.8272H6.07884C5.72086 11.8272 5.42969 11.5366 5.42969 11.1795C5.42969 10.8224 5.72097 10.5317 6.07884 10.5317H9.46616C9.82414 10.5317 10.1153 10.8224 10.1153 11.1795C10.1153 11.5366 9.82403 11.8272 9.46616 11.8272H8.434V15.757C8.434 16.1054 8.13732 16.3888 7.7725 16.3888ZM13.573 16.3802C13.2971 16.3802 13.0861 16.2682 13.0225 16.088L12.6949 15.2305L10.6778 15.2304L10.35 16.0884C10.2866 16.2683 10.0757 16.3802 9.79989 16.3802C9.65479 16.3803 9.51137 16.3492 9.37939 16.2889C9.19704 16.2048 9.02174 15.9735 9.22262 15.3496L10.8049 11.1847C10.9164 10.868 11.255 10.5417 11.6858 10.5318C12.1179 10.5416 12.4565 10.868 12.5682 11.1854L14.1498 15.3483C14.3511 15.9737 14.1758 16.2051 13.9935 16.289C13.8615 16.3492 13.7181 16.3803 13.573 16.3802ZM12.3471 14.0587L11.6864 12.1817L11.0256 14.0587H12.3471ZM15.2144 16.2923C14.8648 16.2923 14.5804 16.0202 14.5804 15.6859V11.1932C14.5804 10.8284 14.8834 10.5317 15.2557 10.5317C15.628 10.5317 15.931 10.8284 15.931 11.1932V15.0795H17.3367C17.6863 15.0795 17.9706 15.3516 17.9706 15.6859C17.9706 16.0202 17.6863 16.2923 17.3367 16.2923H15.2144ZM18.8894 16.3802C18.5246 16.3802 18.2279 16.0835 18.2279 15.7187V11.1932C18.2279 10.8284 18.5246 10.5317 18.8894 10.5317C19.2543 10.5317 19.5509 10.8284 19.5509 11.1932V12.615L21.3965 10.7694C21.4915 10.6745 21.6219 10.6223 21.7634 10.6223C21.9286 10.6223 22.0944 10.6935 22.2187 10.8176C22.3345 10.9334 22.4037 11.0823 22.4131 11.237C22.4227 11.393 22.3708 11.536 22.2672 11.6398L20.7597 13.147L22.388 15.3041C22.4406 15.3733 22.4789 15.4523 22.5007 15.5364C22.5225 15.6205 22.5274 15.7082 22.515 15.7942C22.5032 15.8803 22.4745 15.9632 22.4304 16.038C22.3863 16.1129 22.3279 16.1783 22.2584 16.2304C22.144 16.3174 22.0041 16.3643 21.8605 16.364C21.758 16.3644 21.6568 16.3409 21.565 16.2952C21.4733 16.2496 21.3935 16.1831 21.332 16.101L19.7807 14.0455L19.5512 14.2751V15.7183C19.551 15.8938 19.4812 16.062 19.3571 16.1861C19.2331 16.3101 19.0649 16.3799 18.8894 16.3802Z"/>
</mask>
<path d="M7.111 11.8272H46.423V-27.4848H7.111V11.8272ZM8.434 11.8272V-27.4848H-30.878V11.8272H8.434ZM13.573 16.3802L13.603 -22.9318L13.588 -22.9318H13.573V16.3802ZM13.0225 16.088L50.0912 2.99825L49.9248 2.52711L49.7466 2.06034L13.0225 16.088ZM12.6949 15.2305L49.419 1.20282L39.7616 -24.08L12.6971 -24.0815L12.6949 15.2305ZM10.6778 15.2304L10.68 -24.0816L-16.3874 -24.0831L-26.0461 1.20233L10.6778 15.2304ZM10.35 16.0884L-26.3739 2.06041L-26.5559 2.53678L-26.7254 3.01771L10.35 16.0884ZM9.79989 16.3802V-22.9318H9.77976L9.75963 -22.9318L9.79989 16.3802ZM9.37939 16.2889L-7.08777 51.9857L-7.02286 52.0157L-6.95784 52.0454L9.37939 16.2889ZM9.22262 15.3496L-27.5265 1.38769L-27.8868 2.33595L-28.1977 3.30153L9.22262 15.3496ZM10.8049 11.1847L47.5541 25.1466L47.7266 24.6924L47.8879 24.2341L10.8049 11.1847ZM11.6858 10.5318L12.5683 -28.7702L11.6796 -28.7902L10.7908 -28.7699L11.6858 10.5318ZM12.5682 11.1854L-24.5153 24.2335L-24.3537 24.6927L-24.1808 25.1477L12.5682 11.1854ZM14.1498 15.3483L51.5704 3.30143L51.2593 2.33509L50.8988 1.38609L14.1498 15.3483ZM13.9935 16.289L30.3035 52.0579L30.3643 52.0302L30.425 52.0022L13.9935 16.289ZM12.3471 14.0587V53.3707H67.8619L49.4287 1.00558L12.3471 14.0587ZM11.6864 12.1817L48.768 -0.871429L11.6864 -106.213L-25.3953 -0.871429L11.6864 12.1817ZM11.0256 14.0587L-26.056 1.00558L-44.4891 53.3707H11.0256V14.0587ZM15.931 15.0795H-23.381V54.3915H15.931V15.0795ZM18.8894 16.3802V55.6922H18.9156L18.9417 55.6921L18.8894 16.3802ZM19.5509 12.615H-19.761V107.523L47.3487 40.4128L19.5509 12.615ZM21.3965 10.7694L49.1943 38.5672V38.5672L21.3965 10.7694ZM22.2187 10.8176L-5.56677 38.6277L-5.56588 38.6286L22.2187 10.8176ZM22.4131 11.237L-16.8252 13.6422L-16.8247 13.6495L22.4131 11.237ZM22.2672 11.6398L50.0629 39.4395L50.0713 39.4311L50.0797 39.4227L22.2672 11.6398ZM20.7597 13.147L-7.03602 -14.6528L-31.2236 9.53127L-10.617 36.831L20.7597 13.147ZM22.388 15.3041L-8.9887 38.9882L-8.95218 39.0366L-8.91551 39.0848L22.388 15.3041ZM22.515 15.7942L-16.3986 10.2115L-16.4163 10.3351L-16.4332 10.4589L22.515 15.7942ZM22.2584 16.2304L-1.32417 -15.2226L-1.42764 -15.1451L-1.5306 -15.0668L22.2584 16.2304ZM21.8605 16.364L21.9565 -22.9479L21.817 -22.9482L21.6775 -22.9476L21.8605 16.364ZM21.332 16.101L52.8007 -7.46066L52.7557 -7.52084L52.7104 -7.58085L21.332 16.101ZM19.7807 14.0455L51.1591 -9.63635L23.9367 -45.7059L-8.01704 -13.7523L19.7807 14.0455ZM19.5512 14.2751L-8.24658 -13.5227L-19.7608 -2.00853V14.2751H19.5512ZM19.5512 15.7183L58.8631 15.7641L58.8631 15.7412V15.7183H19.5512ZM7.7725 -22.9232C27.3941 -22.9232 46.423 -7.29177 46.423 15.757H-32.201C-32.201 39.5026 -12.5787 55.7008 7.7725 55.7008V-22.9232ZM46.423 15.757V11.8272H-32.201V15.757H46.423ZM7.111 -27.4848H6.07884V51.1392H7.111V-27.4848ZM6.07884 -27.4848C27.3539 -27.4848 44.7417 -10.2531 44.7417 11.1795H-33.8823C-33.8823 33.3262 -15.9122 51.1392 6.07884 51.1392V-27.4848ZM44.7417 11.1795C44.7417 32.6164 27.3497 49.8437 6.07884 49.8437V-28.7802C-15.9077 -28.7802 -33.8823 -10.9717 -33.8823 11.1795H44.7417ZM6.07884 49.8437H9.46616V-28.7802H6.07884V49.8437ZM9.46616 49.8437C-11.8089 49.8437 -29.1967 32.612 -29.1967 11.1795H49.4273C49.4273 -10.9673 31.4572 -28.7802 9.46616 -28.7802V49.8437ZM-29.1967 11.1795C-29.1967 -10.2575 -11.8047 -27.4848 9.46616 -27.4848V51.1392C31.4527 51.1392 49.4273 33.3306 49.4273 11.1795H-29.1967ZM9.46616 -27.4848H8.434V51.1392H9.46616V-27.4848ZM-30.878 11.8272V15.757H47.746V11.8272H-30.878ZM-30.878 15.757C-30.878 -7.29177 -11.8491 -22.9232 7.7725 -22.9232V55.7008C28.1237 55.7008 47.746 39.5026 47.746 15.757H-30.878ZM13.573 -22.9318C21.0454 -22.9318 42.129 -19.55 50.0912 2.99825L-24.0462 29.1778C-15.9567 52.0863 5.54883 55.6922 13.573 55.6922V-22.9318ZM49.7466 2.06034L49.419 1.20282L-24.0291 29.2581L-23.7016 30.1157L49.7466 2.06034ZM12.6971 -24.0815L10.68 -24.0816L10.6757 54.5424L12.6928 54.5425L12.6971 -24.0815ZM-26.0461 1.20233L-26.3739 2.06041L47.074 30.1165L47.4017 29.2584L-26.0461 1.20233ZM-26.7254 3.01771C-18.7615 -19.5722 2.365 -22.9318 9.79989 -22.9318V55.6922C17.7865 55.6922 39.3347 52.1087 47.4255 29.1592L-26.7254 3.01771ZM9.75963 -22.9318C15.2658 -22.9374 20.7085 -21.7558 25.7166 -19.4676L-6.95784 52.0454C-1.68577 54.4542 4.04373 55.6981 9.84014 55.6921L9.75963 -22.9318ZM25.8466 -19.408C34.8115 -15.2724 43.4986 -6.96916 46.9771 5.29333C49.899 15.594 47.749 23.9621 46.6429 27.3976L-28.1977 3.30153C-29.5047 7.36095 -31.6675 16.1567 -28.6625 26.7499C-25.101 39.3051 -16.2351 47.766 -7.08777 51.9857L25.8466 -19.408ZM45.9717 29.3114L47.5541 25.1466L-25.9442 -2.77711L-27.5265 1.38769L45.9717 29.3114ZM47.8879 24.2341C45.3815 31.3567 40.994 37.1766 35.7396 41.3958C30.2404 45.8117 22.3067 49.6121 12.5809 49.8336L10.7908 -28.7699C-8.99647 -28.3193 -21.8103 -14.5609 -26.278 -1.86463L47.8879 24.2341ZM10.8033 49.8339C1.09293 49.6159 -6.8448 45.8284 -12.3611 41.4005C-17.6306 37.1707 -22.0132 31.3446 -24.5153 24.2335L49.6516 -1.86269C45.1814 -14.5671 32.3597 -28.3258 12.5683 -28.7702L10.8033 49.8339ZM-24.1808 25.1477L-22.5992 29.3106L50.8988 1.38609L49.3171 -2.77684L-24.1808 25.1477ZM-23.2708 27.3953C-24.372 23.9747 -26.5247 15.6149 -23.6115 5.31874C-20.1389 -6.95427 -11.4427 -15.2813 -2.43809 -19.4243L30.425 52.0022C39.6119 47.7754 48.487 39.2907 52.0425 26.7247C55.0386 16.1355 52.8729 7.34733 51.5704 3.30143L-23.2708 27.3953ZM-2.31654 -19.4799C2.68114 -21.7588 8.11042 -22.936 13.603 -22.9318L13.543 55.6921C19.3257 55.6966 25.0418 54.4572 30.3035 52.0579L-2.31654 -19.4799ZM49.4287 1.00558L48.768 -0.871429L-25.3953 25.2349L-24.7345 27.1119L49.4287 1.00558ZM-25.3953 -0.871429L-26.056 1.00558L48.1073 27.1119L48.768 25.2349L-25.3953 -0.871429ZM11.0256 53.3707H12.3471V-25.2532H11.0256V53.3707ZM15.2144 -23.0197C34.9164 -23.0197 53.8924 -7.31465 53.8924 15.6859H-24.7316C-24.7316 39.355 -5.18684 55.6043 15.2144 55.6043V-23.0197ZM53.8924 15.6859V11.1932H-24.7316V15.6859H53.8924ZM53.8924 11.1932C53.8924 33.3039 35.8228 49.8437 15.2557 49.8437V-28.7802C-6.05596 -28.7802 -24.7316 -11.6471 -24.7316 11.1932H53.8924ZM15.2557 49.8437C-5.31133 49.8437 -23.381 33.3039 -23.381 11.1932H55.243C55.243 -11.6471 36.5674 -28.7802 15.2557 -28.7802V49.8437ZM-23.381 11.1932V15.0795H55.243V11.1932H-23.381ZM15.931 54.3915H17.3367V-24.2324H15.931V54.3915ZM17.3367 54.3915C-2.36533 54.3915 -21.3414 38.6865 -21.3414 15.6859H57.2826C57.2826 -7.9832 37.7379 -24.2324 17.3367 -24.2324V54.3915ZM-21.3414 15.6859C-21.3414 -7.31465 -2.36533 -23.0197 17.3367 -23.0197V55.6043C37.7379 55.6043 57.2826 39.355 57.2826 15.6859H-21.3414ZM17.3367 -23.0197H15.2144V55.6043H17.3367V-23.0197ZM18.8894 -22.9318C40.236 -22.9318 57.5399 -5.62793 57.5399 15.7187H-21.084C-21.084 37.7949 -3.18678 55.6922 18.8894 55.6922V-22.9318ZM57.5399 15.7187V11.1932H-21.084V15.7187H57.5399ZM57.5399 11.1932C57.5399 32.5398 40.236 49.8437 18.8894 49.8437V-28.7802C-3.18678 -28.7802 -21.084 -10.883 -21.084 11.1932H57.5399ZM18.8894 49.8437C-2.45715 49.8437 -19.761 32.5398 -19.761 11.1932H58.8629C58.8629 -10.883 40.9657 -28.7802 18.8894 -28.7802V49.8437ZM-19.761 11.1932V12.615H58.8629V11.1932H-19.761ZM47.3487 40.4128L49.1943 38.5672L-6.40124 -17.0283L-8.24683 -15.1828L47.3487 40.4128ZM49.1943 38.5672C41.4692 46.2923 31.3975 49.9342 21.7634 49.9342V-28.6897C11.8462 -28.6897 1.51371 -24.9433 -6.40124 -17.0283L49.1943 38.5672ZM21.7634 49.9342C10.783 49.9342 1.15082 45.3394 -5.56677 38.6277L50.0041 -16.9925C43.038 -23.9524 33.0742 -28.6897 21.7634 -28.6897V49.9342ZM-5.56588 38.6286C-11.8105 32.39 -16.211 23.6628 -16.8252 13.6422L61.6515 8.83181C61.0183 -1.49819 56.4795 -10.5232 50.0032 -16.9934L-5.56588 38.6286ZM-16.8247 13.6495C-17.4564 3.37581 -13.9523 -7.72735 -5.54538 -16.1432L50.0797 39.4227C58.6939 30.7994 62.3019 19.4102 61.651 8.8245L-16.8247 13.6495ZM-5.52857 -16.16L-7.03602 -14.6528L48.5555 40.9468L50.0629 39.4395L-5.52857 -16.16ZM-10.617 36.831L-8.9887 38.9882L53.7647 -8.37992L52.1364 -10.5371L-10.617 36.831ZM-8.91551 39.0848C-12.013 35.0075 -14.2695 30.3555 -15.554 25.399L60.5554 5.67386C59.2272 0.549048 56.8941 -4.26088 53.6915 -8.47658L-8.91551 39.0848ZM-15.554 25.399C-16.8387 20.4422 -17.1257 15.2798 -16.3986 10.2115L61.4286 21.3769C62.1804 16.1365 61.8836 10.7989 60.5554 5.67386L-15.554 25.399ZM-16.4332 10.4589C-15.7391 5.39178 -14.0463 0.512477 -11.4526 -3.89617L56.3134 35.9723C58.9953 31.4138 60.7456 26.3688 61.4633 21.1295L-16.4332 10.4589ZM-11.4526 -3.89617C-8.85913 -8.30444 -5.41652 -12.1543 -1.32417 -15.2226L45.8409 47.6835C50.0723 44.511 53.6318 40.5303 56.3134 35.9723L-11.4526 -3.89617ZM-1.5306 -15.0668C5.22193 -20.1994 13.475 -22.9686 21.9565 -22.9479L21.7644 55.6758C30.5333 55.6973 39.066 52.8342 46.0473 47.5277L-1.5306 -15.0668ZM21.6775 -22.9476C27.7141 -22.9757 33.6736 -21.5896 39.0783 -18.9002L4.05175 51.4907C9.64 54.2714 15.8018 55.7046 22.0434 55.6755L21.6775 -22.9476ZM39.0783 -18.9002C44.483 -16.2108 49.1826 -12.293 52.8007 -7.46066L-10.1367 39.6627C-6.39569 44.6591 -1.53646 48.71 4.05175 51.4907L39.0783 -18.9002ZM52.7104 -7.58085L51.1591 -9.63635L-11.5977 37.7274L-10.0463 39.7829L52.7104 -7.58085ZM-8.01704 -13.7523L-8.24658 -13.5227L47.3489 42.0729L47.5784 41.8433L-8.01704 -13.7523ZM-19.7608 14.2751V15.7183H58.8631V14.2751H-19.7608ZM-19.7608 15.6726C-19.7489 5.43875 -15.6786 -4.3725 -8.44296 -11.6094L47.1572 43.9815C54.641 36.4965 58.8508 26.3488 58.8631 15.7641L-19.7608 15.6726ZM-8.44296 -11.6094C-1.20723 -18.8463 8.60336 -22.9182 18.8371 -22.9318L18.9417 55.6921C29.5264 55.678 39.6734 51.4666 47.1572 43.9815L-8.44296 -11.6094Z" fill="white" mask="url(#path-2-inside-1_853_2056)"/>
</g>
</g>
<defs>
<clipPath id="clip0_853_2056">
<rect width="28.224" height="28.224" fill="white" transform="translate(0 0.223145)"/>
</clipPath>
</defs>
</svg>
