<svg xmlns="http://www.w3.org/2000/svg" width="112" height="24" viewBox="0 0 112 24" fill="none">
  <path d="M22 12C22 10.357 21.1446 8.9229 19.8749 8.15702C20.2546 6.67589 19.8896 5.03019 18.7782 3.86826C17.6668 2.70632 16.0926 2.32474 14.6759 2.72169C13.9424 1.39428 12.5716 0.5 11 0.5C9.42845 0.5 8.05669 1.39428 7.32411 2.72169C5.90738 2.32474 4.33323 2.70632 3.22181 3.86826C2.11039 5.03019 1.7454 6.67589 2.1251 8.15702C0.855402 8.92381 0 10.357 0 12C0 13.643 0.855402 15.0771 2.1251 15.843C1.7454 17.3241 2.11039 18.9698 3.22181 20.1317C4.33323 21.2937 5.90738 21.6753 7.32411 21.2783C8.05756 22.6057 9.42845 23.5 11 23.5C12.5716 23.5 13.9433 22.6057 14.6759 21.2783C16.0926 21.6753 17.6668 21.2937 18.7782 20.1317C19.8896 18.9698 20.2546 17.3241 19.8749 15.843C21.1446 15.0762 22 13.643 22 12ZM12.0068 13.2126V14.9071C12.0068 15.4885 11.5561 15.9596 11 15.9596C10.4439 15.9596 9.99324 15.4885 9.99324 14.9071V13.2126C9.55905 12.8852 9.27536 12.3517 9.27536 11.7495C9.27536 10.754 10.0477 9.94649 11 9.94649C11.9523 9.94649 12.7246 10.754 12.7246 11.7495C12.7246 12.3517 12.4418 12.8852 12.0068 13.2126Z" fill="#E70000"/>
  <path d="M42.3893 12.0486L44.9214 9.51646C46.224 8.21388 46.224 6.10437 44.9214 4.80179C43.6189 3.49921 41.5093 3.49921 40.2068 4.80179L38.6346 6.37392C38.4103 4.75135 37.0173 3.50269 35.3338 3.50269C33.4921 3.50269 32 4.99483 32 6.83652V17.3337C32 19.1754 33.4921 20.6675 35.3338 20.6675C37.0399 20.6675 38.4451 19.3858 38.6433 17.7319L40.2068 19.2954C41.5093 20.5979 43.6189 20.5979 44.9214 19.2954C46.224 17.9928 46.224 15.8833 44.9214 14.5807L42.3893 12.0486Z" fill="#E70000"/>
  <path d="M74.9816 12.0486L77.5137 9.51646C78.8163 8.21388 78.8163 6.10437 77.5137 4.80179C76.2112 3.49921 74.1016 3.49921 72.7991 4.80179L71.2269 6.37392C71.0026 4.75135 69.6096 3.50269 67.9261 3.50269C66.0844 3.50269 64.5923 4.99483 64.5923 6.83652V17.3337C64.5923 19.1754 66.0844 20.6675 67.9261 20.6675C69.6322 20.6675 71.0374 19.3858 71.2356 17.7319L72.7991 19.2954C74.1016 20.5979 76.2112 20.5979 77.5137 19.2954C78.8163 17.9928 78.8163 15.8833 77.5137 14.5807L74.9816 12.0486Z" fill="#E70000"/>
  <path d="M94.79 12.0824C94.79 11.0164 94.2891 10.0685 93.51 9.45813C94.2891 8.84771 94.79 7.8999 94.79 6.83384C94.79 4.99214 93.2979 3.5 91.4562 3.5H84.2215C82.3798 3.5 80.8877 4.99214 80.8877 6.83384V17.331C80.8877 19.1727 82.3798 20.6648 84.2215 20.6648H91.4562C93.2979 20.6648 94.79 19.1727 94.79 17.331C94.79 16.2649 94.2891 15.3171 93.51 14.7067C94.2891 14.0963 94.79 13.1485 94.79 12.0824Z" fill="#E70000"/>
  <path d="M111.023 4.48133C109.721 3.17875 107.611 3.17875 106.309 4.48133L104.137 6.65345L101.965 4.48133C100.662 3.17875 98.5525 3.17875 97.2499 4.48133C95.9473 5.78391 95.9473 7.89343 97.2499 9.196L100.803 12.749V17.3315C100.803 19.1732 102.295 20.6653 104.137 20.6653C105.978 20.6653 107.471 19.1732 107.471 17.3315V12.749L111.023 9.196C112.326 7.89343 112.326 5.78391 111.023 4.48133Z" fill="#E70000"/>
  <path d="M59.0048 3.5C57.1631 3.5 55.6709 4.99214 55.6709 6.83384V13.9972H54.8205V6.83384C54.8205 4.99214 53.3284 3.5 51.4867 3.5C49.645 3.5 48.1528 4.99214 48.1528 6.83384V17.331C48.1528 19.1727 49.645 20.6648 51.4867 20.6648H59.0048C60.8465 20.6648 62.3386 19.1727 62.3386 17.331V6.83384C62.3386 4.99214 60.8465 3.5 59.0048 3.5Z" fill="#E70000"/>
</svg>