<svg width="23" height="23" viewBox="0 0 23 23" fill="none" xmlns="http://www.w3.org/2000/svg">
<g id="cib:notion" clip-path="url(#clip0_853_2041)">
<path id="Vector" d="M4.84241 4.13356C5.52848 4.69281 5.78836 4.65331 7.08357 4.56669L19.2942 3.83419C19.5541 3.83419 19.3379 3.57431 19.2506 3.53065L17.2222 2.06496C16.8362 1.76143 16.3164 1.41908 15.3233 1.50155L3.50284 2.3678C3.06972 2.4073 2.98309 2.62421 3.15634 2.79746L4.84241 4.13356ZM5.57491 6.98179V19.8272C5.57491 20.5168 5.91795 20.7766 6.69411 20.733L20.114 19.9568C20.8902 19.9132 20.9803 19.4405 20.9803 18.8778V6.11901C20.9803 5.5556 20.7634 5.25622 20.2873 5.29988L6.26514 6.11901C5.74539 6.16267 5.5756 6.41838 5.5756 6.97833L5.57491 6.98179ZM18.8216 7.66717C18.9082 8.05733 18.8216 8.44333 18.4314 8.49045L17.7856 8.62074V18.1024C17.2222 18.4059 16.7066 18.5791 16.2769 18.5791C15.5839 18.5791 15.4107 18.3622 14.8944 17.7164L10.6643 11.0753V17.5001L12.0032 17.8037C12.0032 17.8037 12.0032 18.5798 10.9242 18.5798L7.94636 18.7531C7.85973 18.5798 7.94636 18.1467 8.24989 18.0635L9.02605 17.8466V9.35393L7.94705 9.26731C7.86042 8.87715 8.07733 8.3179 8.67955 8.27493L11.8736 8.05802L16.2769 14.7857V8.83349L15.1542 8.7032C15.0676 8.23058 15.4107 7.88408 15.8438 7.84388L18.8216 7.66717ZM2.51047 1.20287L14.8077 0.297118C16.3164 0.166834 16.7066 0.253459 17.6553 0.942993L21.5825 3.7039C22.2284 4.17653 22.4453 4.30681 22.4453 4.8231V19.9575C22.4453 20.9069 22.0988 21.4662 20.893 21.5528L6.60679 22.4156C5.7045 22.4592 5.27138 22.329 4.79459 21.7261L1.9034 17.9721C1.38711 17.2825 1.1709 16.7663 1.1709 16.164V2.71222C1.1709 1.93606 1.5174 1.29019 2.50977 1.20356L2.51047 1.20287Z" fill="black"/>
</g>
<defs>
<clipPath id="clip0_853_2041">
<rect width="22.176" height="22.176" fill="white" transform="translate(0.719727 0.24707)"/>
</clipPath>
</defs>
</svg>
