<svg width="399" height="430" viewBox="0 0 399 430" fill="none" xmlns="http://www.w3.org/2000/svg">
<mask id="mask0_4471_16112" style="mask-type:alpha" maskUnits="userSpaceOnUse" x="0" y="0" width="399" height="430">
<rect width="399" height="430" rx="20" fill="#C4C4C4"/>
</mask>
<g mask="url(#mask0_4471_16112)">
<rect width="399" height="430" rx="20" fill="#C8A79D"/>
<g filter="url(#filter0_f_4471_16112)">
<ellipse cx="372.513" cy="1.16364" rx="141.453" ry="291.703" fill="#FFE9D9"/>
</g>
<g filter="url(#filter1_f_4471_16112)">
<ellipse cx="377.585" cy="369.566" rx="119.475" ry="246.378" fill="#FFAC9A"/>
</g>
<g filter="url(#filter2_f_4471_16112)">
<ellipse cx="82.8432" cy="324.246" rx="141.453" ry="291.703" fill="#FF8282"/>
</g>
<g filter="url(#filter3_f_4471_16112)">
<ellipse cx="120.038" cy="-68.5623" rx="189.919" ry="391.649" fill="#FFC2AF"/>
</g>
</g>
<path d="M31.707 131.176H36.2422L38.1758 133.672C39.3887 132.248 40.0742 130.104 40.0742 127.273C40.0742 121.824 37.5078 118.871 33.5703 118.871C29.6328 118.871 27.0312 121.824 27.0312 127.273C27.0312 132.723 29.6328 135.676 33.5703 135.676C34.0801 135.676 34.5723 135.623 35.0469 135.535L31.707 131.176ZM45.4531 127.273C45.4531 131.809 43.9062 135.307 41.4102 137.504L45.0312 142.109H40.0742L38.0352 139.543C36.6641 140.088 35.1523 140.352 33.5703 140.352C26.7852 140.352 21.6523 135.535 21.6523 127.273C21.6523 118.977 26.7852 114.195 33.5703 114.195C40.2852 114.195 45.4531 118.977 45.4531 127.273ZM61.4141 131.879V120.91H66.6172V140H61.625V136.555H61.4141C60.5352 138.77 58.4961 140.246 55.6133 140.246C51.7812 140.246 49.1797 137.539 49.1797 133.074V120.91H54.3828V132.16C54.3828 134.41 55.6836 135.852 57.7227 135.852C59.6211 135.852 61.4141 134.48 61.4141 131.879ZM79.3086 140.387C73.4727 140.387 69.8867 136.59 69.8867 130.543C69.8867 124.637 73.5078 120.664 79.0977 120.664C84.125 120.664 88.0625 123.828 88.0625 130.332V131.809H75.0195C75.0195 134.691 76.7422 136.484 79.4141 136.484C81.1719 136.484 82.4375 135.711 82.9648 134.551H87.9219C87.1836 138.066 84.0195 140.387 79.3086 140.387ZM75.0195 128.539H83.1406C83.1406 126.219 81.5234 124.566 79.2031 124.566C76.8125 124.566 75.1074 126.342 75.0195 128.539ZM102.23 126.57C102.02 125.234 100.824 124.355 99.1016 124.355C97.4141 124.355 96.1133 125.164 96.1484 126.324C96.1133 127.168 96.8164 127.836 98.6094 128.223L102.02 128.926C105.711 129.699 107.504 131.352 107.539 134.094C107.504 137.855 104.129 140.387 99.0664 140.387C93.8984 140.387 90.875 138.066 90.4531 134.34H95.6914C95.9375 135.852 97.168 136.625 99.0664 136.625C100.965 136.625 102.23 135.852 102.23 134.621C102.23 133.637 101.422 133.039 99.6289 132.652L96.4648 132.02C92.8438 131.316 90.9453 129.418 90.9805 126.605C90.9453 122.949 94.1094 120.664 99.0312 120.664C103.848 120.664 106.836 122.949 107.117 126.57H102.23ZM120.793 120.91V124.812H117.207V134.129C117.207 135.641 117.945 136.027 119 136.062C119.527 136.062 120.441 136.027 121.074 135.957V140.07C120.512 140.176 119.598 140.246 118.297 140.246C114.535 140.246 111.969 138.559 112.004 134.867V124.812H109.367V120.91H112.004V116.34H117.207V120.91H120.793ZM124.062 140V120.91H129.266V140H124.062ZM126.664 118.414C125.082 118.414 123.816 117.219 123.816 115.777C123.816 114.301 125.082 113.105 126.664 113.105C128.211 113.105 129.477 114.301 129.477 115.777C129.477 117.219 128.211 118.414 126.664 118.414ZM141.887 140.387C136.121 140.387 132.535 136.414 132.535 130.508C132.535 124.602 136.121 120.664 141.887 120.664C147.652 120.664 151.273 124.602 151.273 130.508C151.273 136.414 147.652 140.387 141.887 140.387ZM141.922 136.344C144.594 136.344 145.965 133.848 145.965 130.508C145.965 127.133 144.594 124.637 141.922 124.637C139.215 124.637 137.809 127.133 137.809 130.508C137.809 133.848 139.215 136.344 141.922 136.344ZM159.746 128.961V140H154.543V120.91H159.5V124.25H159.711C160.59 122.035 162.629 120.664 165.441 120.664C169.414 120.664 172.051 123.371 172.016 127.836V140H166.848V128.75C166.848 126.395 165.547 124.988 163.402 124.988C161.223 124.988 159.746 126.43 159.746 128.961ZM184.461 140V114.547H194.586C200.211 114.547 203.023 117.254 203.023 121.086C203.023 124.074 201.09 125.938 198.453 126.535V126.781C201.336 126.922 204.043 129.207 204.043 132.969C204.043 137.012 201.02 140 195.254 140H184.461ZM194.199 135.641C197.258 135.641 198.559 134.375 198.559 132.477C198.559 130.332 196.941 128.82 194.34 128.82H189.734V135.641H194.199ZM193.812 125.199C196.027 125.199 197.68 123.969 197.68 121.93C197.68 120.102 196.344 118.836 193.918 118.836H189.734V125.199H193.812ZM215.855 140.387C210.09 140.387 206.504 136.414 206.504 130.508C206.504 124.602 210.09 120.664 215.855 120.664C221.621 120.664 225.242 124.602 225.242 130.508C225.242 136.414 221.621 140.387 215.855 140.387ZM215.891 136.344C218.562 136.344 219.934 133.848 219.934 130.508C219.934 127.133 218.562 124.637 215.891 124.637C213.184 124.637 211.777 127.133 211.777 130.508C211.777 133.848 213.184 136.344 215.891 136.344ZM227.598 134.656C227.598 130.402 231.043 128.996 234.699 128.785C236.07 128.697 238.637 128.574 239.445 128.539V126.992C239.41 125.41 238.32 124.461 236.387 124.461C234.629 124.461 233.504 125.27 233.223 126.57H228.266C228.582 123.266 231.465 120.664 236.527 120.664C240.676 120.664 244.613 122.527 244.613 127.133V140H239.691V137.363H239.551C238.602 139.121 236.809 140.352 233.961 140.352C230.305 140.352 227.598 138.453 227.598 134.656ZM232.59 134.516C232.59 135.992 233.785 136.766 235.438 136.766C237.793 136.766 239.48 135.184 239.445 133.18V131.773C238.654 131.809 236.439 131.932 235.543 132.02C233.75 132.195 232.59 133.039 232.59 134.516ZM248.586 140V120.91H253.613V124.215H253.824C254.527 121.859 256.285 120.629 258.43 120.629C258.957 120.629 259.625 120.699 260.082 120.805V125.445C259.59 125.305 258.605 125.164 257.867 125.164C255.512 125.164 253.789 126.816 253.789 129.137V140H248.586ZM269.047 140.316C264.688 140.316 261.277 136.836 261.277 130.473C261.277 123.934 264.828 120.664 269.047 120.664C272.246 120.664 273.758 122.562 274.461 124.109H274.637V114.547H279.84V140H274.707V136.941H274.461C273.723 138.523 272.141 140.316 269.047 140.316ZM270.664 136.168C273.266 136.168 274.742 133.883 274.742 130.438C274.742 126.992 273.266 124.812 270.664 124.812C268.027 124.812 266.621 127.098 266.621 130.438C266.621 133.812 268.027 136.168 270.664 136.168Z" fill="white"/>
<path d="M0 350H399V410C399 421.046 390.046 430 379 430H20C8.9543 430 0 421.046 0 410V350Z" fill="white" fill-opacity="0.2"/>
<g filter="url(#filter4_i_4471_16112)">
<path fill-rule="evenodd" clip-rule="evenodd" d="M55.5171 163.785C68.8288 154.938 85.1671 150.718 101.588 151.886C118.009 153.055 133.432 159.535 145.078 170.159C156.725 180.783 163.828 194.852 165.11 209.831C166.391 224.81 161.765 239.714 152.065 251.857C142.366 264 128.231 272.584 112.207 276.061C96.9732 279.367 80.9845 277.851 66.852 271.8L27.4525 283.983C25.4191 284.612 23.1707 284.134 21.6525 282.749C20.1342 281.364 19.6095 279.313 20.2988 277.458L33.6545 241.517C27.0213 228.626 25.3592 214.041 28.9835 200.144C32.7956 185.527 42.2054 172.633 55.5171 163.785ZM100.71 162.147C86.9705 161.169 73.2997 164.7 62.1613 172.104C51.0229 179.507 43.1495 190.296 39.9598 202.526C36.7701 214.756 38.4738 227.623 44.7641 238.809C45.4607 240.048 45.5774 241.491 45.0874 242.81L34.6527 270.89L65.4349 261.371C66.8804 260.924 68.4628 261.031 69.8208 261.666C82.0831 267.404 96.1888 268.958 109.596 266.049C123.003 263.139 134.831 255.957 142.946 245.796C151.062 235.636 154.933 223.165 153.861 210.632C152.789 198.098 146.845 186.326 137.1 177.437C127.355 168.547 114.45 163.125 100.71 162.147Z" fill="url(#paint0_linear_4471_16112)"/>
</g>
<g filter="url(#filter5_i_4471_16112)">
<path d="M88.6496 229.492C88.7452 217.216 92.1884 213.446 98.2141 209.676C102.327 207.066 105.387 203.779 105.387 198.946C105.387 193.533 101.275 190.053 96.0143 190.053C91.232 190.053 86.641 193.146 86.3541 199.623H74.3984C74.6854 186.67 84.3455 180 96.1099 180C109.022 180 117.917 187.25 117.917 198.753C117.917 206.583 113.996 211.706 107.779 215.476C102.231 218.859 99.9357 222.242 99.8401 229.492V230.362H88.6496V229.492ZM94.5796 251.725C90.4668 251.725 87.1193 248.342 87.1193 244.185C87.1193 240.125 90.4668 236.742 94.5796 236.742C98.501 236.742 101.944 240.125 101.944 244.185C101.944 248.342 98.501 251.725 94.5796 251.725Z" fill="url(#paint1_linear_4471_16112)"/>
</g>
<defs>
<filter id="filter0_f_4471_16112" x="30.078" y="-491.52" width="684.869" height="985.369" filterUnits="userSpaceOnUse" colorInterpolationFilters="sRGB">
<feFlood floodOpacity="0" result="BackgroundImageFix"/>
<feBlend mode="normal" in="SourceGraphic" in2="BackgroundImageFix" result="shape"/>
<feGaussianBlur stdDeviation="100.491" result="effect1_foregroundBlur_4471_16112"/>
</filter>
<filter id="filter1_f_4471_16112" x="57.1289" y="-77.7939" width="640.912" height="894.721" filterUnits="userSpaceOnUse" colorInterpolationFilters="sRGB">
<feFlood floodOpacity="0" result="BackgroundImageFix"/>
<feBlend mode="normal" in="SourceGraphic" in2="BackgroundImageFix" result="shape"/>
<feGaussianBlur stdDeviation="100.491" result="effect1_foregroundBlur_4471_16112"/>
</filter>
<filter id="filter2_f_4471_16112" x="-259.592" y="-168.438" width="684.869" height="985.369" filterUnits="userSpaceOnUse" colorInterpolationFilters="sRGB">
<feFlood floodOpacity="0" result="BackgroundImageFix"/>
<feBlend mode="normal" in="SourceGraphic" in2="BackgroundImageFix" result="shape"/>
<feGaussianBlur stdDeviation="100.491" result="effect1_foregroundBlur_4471_16112"/>
</filter>
<filter id="filter3_f_4471_16112" x="-270.863" y="-661.192" width="781.802" height="1185.26" filterUnits="userSpaceOnUse" colorInterpolationFilters="sRGB">
<feFlood floodOpacity="0" result="BackgroundImageFix"/>
<feBlend mode="normal" in="SourceGraphic" in2="BackgroundImageFix" result="shape"/>
<feGaussianBlur stdDeviation="100.491" result="effect1_foregroundBlur_4471_16112"/>
</filter>
<filter id="filter4_i_4471_16112" x="20" y="151.695" width="145.319" height="136.562" filterUnits="userSpaceOnUse" colorInterpolationFilters="sRGB">
<feFlood floodOpacity="0" result="BackgroundImageFix"/>
<feBlend mode="normal" in="SourceGraphic" in2="BackgroundImageFix" result="shape"/>
<feColorMatrix in="SourceAlpha" type="matrix" values="0 0 0 0 0 0 0 0 0 0 0 0 0 0 0 0 0 0 127 0" result="hardAlpha"/>
<feOffset dy="4"/>
<feGaussianBlur stdDeviation="2"/>
<feComposite in2="hardAlpha" operator="arithmetic" k2="-1" k3="1"/>
<feColorMatrix type="matrix" values="0 0 0 0 0 0 0 0 0 0 0 0 0 0 0 0 0 0 0.05 0"/>
<feBlend mode="normal" in2="shape" result="effect1_innerShadow_4471_16112"/>
</filter>
<filter id="filter5_i_4471_16112" x="74.3984" y="180" width="43.5186" height="75.7266" filterUnits="userSpaceOnUse" colorInterpolationFilters="sRGB">
<feFlood floodOpacity="0" result="BackgroundImageFix"/>
<feBlend mode="normal" in="SourceGraphic" in2="BackgroundImageFix" result="shape"/>
<feColorMatrix in="SourceAlpha" type="matrix" values="0 0 0 0 0 0 0 0 0 0 0 0 0 0 0 0 0 0 127 0" result="hardAlpha"/>
<feOffset dy="4"/>
<feGaussianBlur stdDeviation="2"/>
<feComposite in2="hardAlpha" operator="arithmetic" k2="-1" k3="1"/>
<feColorMatrix type="matrix" values="0 0 0 0 0 0 0 0 0 0 0 0 0 0 0 0 0 0 0.05 0"/>
<feBlend mode="normal" in2="shape" result="effect1_innerShadow_4471_16112"/>
</filter>
<linearGradient id="paint0_linear_4471_16112" x1="19.7358" y1="180.859" x2="156.307" y2="269.807" gradientUnits="userSpaceOnUse">
<stop stop-color="white" stop-opacity="0.6"/>
<stop offset="1" stop-color="white" stop-opacity="0.2"/>
</linearGradient>
<linearGradient id="paint1_linear_4471_16112" x1="74.3193" y1="195.78" x2="125.868" y2="214.362" gradientUnits="userSpaceOnUse">
<stop stop-color="white" stop-opacity="0.6"/>
<stop offset="1" stop-color="white" stop-opacity="0.2"/>
</linearGradient>
</defs>
</svg>
