<svg width="20" height="20" viewBox="0 0 20 20" fill="none" xmlns="http://www.w3.org/2000/svg">
<path d="M5.37471 11.3778C4.4739 10.4769 3.01392 10.4769 2.11311 11.3778C1.2123 12.2786 1.2123 13.7385 2.11311 14.6394C1.2123 15.5402 1.2123 17.0002 2.11311 17.901C3.01392 18.8018 4.4739 18.8018 5.37471 17.901C6.27553 18.8018 7.7355 18.8018 8.63632 17.901C9.53713 17.0002 9.53713 15.5402 8.63632 14.6394C9.53713 13.7385 9.53713 12.2786 8.63632 11.3778C7.7355 10.4769 6.27553 10.4769 5.37471 11.3778Z" fill="#6B6B6B"/>
<path d="M14.6325 2.60432C13.7317 1.70351 12.2717 1.70351 11.3709 2.60432C10.4701 3.50513 10.4701 4.96511 11.3709 5.86592C10.4701 6.76674 10.4701 8.22671 11.3709 9.12753C12.2717 10.0283 13.7317 10.0283 14.6325 9.12753C15.5333 10.0283 16.9933 10.0283 17.8941 9.12753C18.7949 8.22671 18.7949 6.76674 17.8941 5.86592C18.7949 4.96511 18.7949 3.50513 17.8941 2.60432C16.9933 1.70351 15.5333 1.70351 14.6325 2.60432Z" fill="#6B6B6B"/>
<path d="M7.6801 3.55857C7.6801 2.28479 6.64775 1.25244 5.37397 1.25244C4.10019 1.25244 3.06785 2.28479 3.06785 3.55857C1.79407 3.55857 0.761719 4.59092 0.761719 5.86469C0.761719 7.13847 1.79407 8.17082 3.06785 8.17082C3.06785 9.4446 4.10019 10.4769 5.37397 10.4769C6.64775 10.4769 7.6801 9.4446 7.6801 8.17082C8.95388 8.17082 9.98623 7.13847 9.98623 5.86469C9.98623 4.59092 8.95388 3.55857 7.6801 3.55857Z" fill="#6B6B6B"/>
<path d="M16.9379 12.334C16.9379 11.0602 15.9056 10.0278 14.6318 10.0278C13.358 10.0278 12.3257 11.0602 12.3257 12.334C11.0519 12.334 10.0195 13.3663 10.0195 14.6401C10.0195 15.9139 11.0519 16.9462 12.3257 16.9462C12.3257 18.22 13.358 19.2523 14.6318 19.2523C15.9056 19.2523 16.9379 18.22 16.9379 16.9462C18.2117 16.9462 19.244 15.9139 19.244 14.6401C19.244 13.3663 18.2117 12.334 16.9379 12.334Z" fill="#6B6B6B"/>
</svg>
