<svg width="20" height="20" viewBox="0 0 20 20" fill="none" xmlns="http://www.w3.org/2000/svg">
<g id="Delete / undefined">
<path id="Vector" d="M8.33464 4.16667H11.668C11.668 3.24619 10.9218 2.5 10.0013 2.5C9.0808 2.5 8.33464 3.24619 8.33464 4.16667ZM7.08464 4.16667C7.08464 2.55583 8.39047 1.25 10.0013 1.25C11.6121 1.25 12.918 2.55583 12.918 4.16667H17.7096C18.0548 4.16667 18.3346 4.44649 18.3346 4.79167C18.3346 5.13684 18.0548 5.41667 17.7096 5.41667H16.6104L15.6337 15.5093C15.4787 17.1112 14.1326 18.3333 12.5232 18.3333H7.47938C5.87009 18.3333 4.52393 17.1112 4.36891 15.5093L3.3922 5.41667H2.29297C1.94779 5.41667 1.66797 5.13684 1.66797 4.79167C1.66797 4.44649 1.94779 4.16667 2.29297 4.16667H7.08464ZM8.7513 8.125C8.7513 7.77983 8.47147 7.5 8.1263 7.5C7.78113 7.5 7.5013 7.77983 7.5013 8.125V14.375C7.5013 14.7202 7.78113 15 8.1263 15C8.47147 15 8.7513 14.7202 8.7513 14.375V8.125ZM11.8763 7.5C11.5311 7.5 11.2513 7.77983 11.2513 8.125V14.375C11.2513 14.7202 11.5311 15 11.8763 15C12.2215 15 12.5013 14.7202 12.5013 14.375V8.125C12.5013 7.77983 12.2215 7.5 11.8763 7.5Z" fill="#6B6B6B"/>
</g>
</svg>
