<svg width="20" height="20" viewBox="0 0 20 20" fill="none" xmlns="http://www.w3.org/2000/svg">
<path d="M12.6 11.2H9.4C9.0688 11.2 8.8 10.9312 8.8 10.6V5.8C8.8 5.4688 9.0688 5.2 9.4 5.2C9.7312 5.2 10 5.4688 10 5.8V10H12.6C12.9312 10 13.2 10.2688 13.2 10.6C13.2 10.9312 12.9312 11.2 12.6 11.2ZM10 2C5.5824 2 2 5.5824 2 10C2 14.4176 5.5824 18 10 18C14.4176 18 18 14.4176 18 10C18 5.5824 14.4176 2 10 2Z" fill="#6B6B6B"/>
<path d="M16 12.1807C15.2121 11.5581 14.0655 11.6105 13.338 12.338C12.6105 13.0655 12.5581 14.2121 13.1807 15C12.5581 15.7879 12.6105 16.9345 13.338 17.662C14.0655 18.3895 15.2121 18.4419 16 17.8193C16.7879 18.4419 17.9345 18.3895 18.662 17.662C19.3895 16.9345 19.4419 15.7879 18.8193 15C19.4419 14.2121 19.3895 13.0655 18.662 12.338C17.9345 11.6105 16.7879 11.5581 16 12.1807Z" fill="#6B6B6B" stroke="white" stroke-width="0.5"/>
</svg>
