<svg width="20" height="20" viewBox="0 0 20 20" fill="none" xmlns="http://www.w3.org/2000/svg">
<g id="Key / undefined">
<path id="Vector" d="M7.55206 1.6687C5.92595 1.6687 4.60806 2.98659 4.60806 4.61269C2.98196 4.61269 1.66406 5.93059 1.66406 7.55669C1.66406 9.1828 2.98196 10.5007 4.60806 10.5007C4.60806 12.1268 5.92595 13.4447 7.55206 13.4447C8.56538 13.4447 9.45948 12.9322 9.9894 12.1522L15.7247 17.8876C16.3208 18.4837 17.2876 18.4837 17.8837 17.8876C18.4797 17.2915 18.4797 16.3247 17.8837 15.7286L17.3312 15.1762L17.7041 14.8033C18.3002 14.2072 18.3002 13.2404 17.7041 12.6444C17.1081 12.0483 16.1413 12.0483 15.5452 12.6444L15.1723 13.0173L12.1483 9.99331C12.9283 9.46339 13.4408 8.57001 13.4408 7.55596C13.4408 5.92986 12.1229 4.61197 10.4968 4.61197C10.4968 2.98586 9.17889 1.66797 7.55279 1.66797L7.55206 1.6687Z" fill="#6B6B6B"/>
</g>
</svg>
