<svg width="20" height="20" viewBox="0 0 20 20" fill="none" xmlns="http://www.w3.org/2000/svg">
<path d="M10.0026 6.66797V1.66797H5.0026C4.08213 1.66797 3.33594 2.41416 3.33594 3.33464V16.668C3.33594 17.5885 4.08213 18.3346 5.0026 18.3346H15.0026C15.9231 18.3346 16.6693 17.5885 16.6693 16.668V8.33464H11.6693C10.7488 8.33464 10.0026 7.58844 10.0026 6.66797ZM5.83594 10.2096C5.83594 9.86447 6.11576 9.58464 6.46094 9.58464C6.80611 9.58464 7.08594 9.86447 7.08594 10.2096C7.08594 10.5548 6.80611 10.8346 6.46094 10.8346C6.11576 10.8346 5.83594 10.5548 5.83594 10.2096ZM5.83594 12.7096C5.83594 12.3645 6.11576 12.0846 6.46094 12.0846C6.80611 12.0846 7.08594 12.3645 7.08594 12.7096C7.08594 13.0548 6.80611 13.3346 6.46094 13.3346C6.11576 13.3346 5.83594 13.0548 5.83594 12.7096ZM5.83594 15.2096C5.83594 14.8645 6.11576 14.5846 6.46094 14.5846C6.80611 14.5846 7.08594 14.8645 7.08594 15.2096C7.08594 15.5548 6.80611 15.8346 6.46094 15.8346C6.11576 15.8346 5.83594 15.5548 5.83594 15.2096ZM8.33594 10.2096C8.33594 9.86447 8.61577 9.58464 8.96094 9.58464H13.5443C13.8894 9.58464 14.1693 9.86447 14.1693 10.2096C14.1693 10.5548 13.8894 10.8346 13.5443 10.8346H8.96094C8.61577 10.8346 8.33594 10.5548 8.33594 10.2096ZM8.33594 12.7096C8.33594 12.3645 8.61577 12.0846 8.96094 12.0846H13.5443C13.8894 12.0846 14.1693 12.3645 14.1693 12.7096C14.1693 13.0548 13.8894 13.3346 13.5443 13.3346H8.96094C8.61577 13.3346 8.33594 13.0548 8.33594 12.7096ZM8.33594 15.2096C8.33594 14.8645 8.61577 14.5846 8.96094 14.5846H13.5443C13.8894 14.5846 14.1693 14.8645 14.1693 15.2096C14.1693 15.5548 13.8894 15.8346 13.5443 15.8346H8.96094C8.61577 15.8346 8.33594 15.5548 8.33594 15.2096ZM11.2526 6.66797V2.08464L16.2526 7.08464H11.6693C11.4392 7.08464 11.2526 6.89809 11.2526 6.66797Z" fill="#6B6B6B"/>
</svg>
